<svg id="Layer_1" data-name="Layer 1" xmlns="http://www.w3.org/2000/svg" viewBox="0 0 349.89 454.51"><defs><style>.cls-1{fill:#fff;}</style></defs><title>hunter_emblem</title><polygon class="cls-1" points="131.21 75.75 174.94 0 86.88 0 43.73 74.74 0 150.49 87.47 150.49 43.73 226.24 0 301.99 0 303.01 87.47 303.01 131.21 227.26 174.94 151.5 87.47 151.5 131.21 75.75"/><polygon class="cls-1" points="262.41 151.5 349.88 151.5 306.15 75.75 262.41 0 174.94 0 218.68 75.75 262.41 151.5"/><polygon class="cls-1" points="349.88 303.01 306.15 227.26 262.41 151.5 174.94 151.5 174.94 151.5 218.68 227.26 262.41 303.01 349.88 303.01 349.88 303.01"/><polygon class="cls-1" points="306.15 378.76 262.41 303.01 174.94 303.01 218.68 378.76 262.41 454.51 349.88 454.51 349.88 454.51 306.15 378.76"/><polygon class="cls-1" points="0 454.51 87.47 454.51 131.21 378.76 174.94 303.01 87.47 303.01 43.73 378.76 0 454.51"/></svg>