<svg id="Layer_1" data-name="Layer 1" xmlns="http://www.w3.org/2000/svg" viewBox="0 0 326.18 391.77"><defs><style>.cls-1{fill:#fff;}</style></defs><title>titan_emblem</title><polygon class="cls-1" points="152.82 195.63 76.41 149.06 0 102.48 0 195.63 0 288.79 76.41 242.21 152.82 195.63"/><polygon class="cls-1" points="173.36 195.63 249.77 242.21 326.18 288.79 326.18 195.63 326.18 102.48 249.77 149.06 173.36 195.63"/><polygon class="cls-1" points="240.29 46.57 163.88 0 87.47 46.57 11.06 93.15 87.47 139.73 163.88 186.3 163.88 186.3 240.29 139.73 316.7 93.15 240.29 46.57"/><polygon class="cls-1" points="240.29 252.05 163.88 205.47 87.47 252.05 11.06 298.63 87.47 345.2 163.88 391.77 163.88 391.77 240.29 345.2 316.7 298.63 240.29 252.05"/></svg>