<svg id="Layer_1" data-name="Layer 1" xmlns="http://www.w3.org/2000/svg" viewBox="0 0 493.22 271.6"><defs><style>.cls-1{fill:#fff;}</style></defs><title>warlock_emblem</title><polygon class="cls-1" points="473.62 237.65 493.22 271.6 454.02 271.6 414.81 271.6 434.42 237.65 454.02 203.7 473.62 237.65"/><polygon class="cls-1" points="434.42 169.75 454.02 203.7 414.81 203.7 375.61 203.7 395.21 169.75 414.81 135.8 434.42 169.75"/><polygon class="cls-1" points="454.02 203.7 434.42 237.65 414.81 271.6 395.21 237.65 375.61 203.7 414.81 203.7 454.02 203.7"/><polygon class="cls-1" points="395.21 101.85 414.81 135.8 375.61 135.8 336.41 135.8 356.01 101.85 375.61 67.9 395.21 101.85"/><polygon class="cls-1" points="414.81 135.8 395.21 169.75 375.61 203.7 356.01 169.75 336.41 135.8 375.61 135.8 414.81 135.8"/><polygon class="cls-1" points="388.64 238.08 407.99 271.6 369.28 271.6 330.58 271.6 349.93 238.08 369.28 204.57 388.64 238.08"/><polygon class="cls-1" points="356.01 33.95 375.61 67.9 336.41 67.9 297.21 67.9 316.81 33.95 336.41 0 356.01 33.95"/><polygon class="cls-1" points="375.61 67.9 356.01 101.85 336.41 135.8 316.81 101.85 297.21 67.9 336.41 67.9 375.61 67.9"/><polygon class="cls-1" points="349.93 171.05 369.28 204.57 330.58 204.57 291.88 204.57 311.23 171.05 330.58 137.53 349.93 171.05"/><polygon class="cls-1" points="369.28 204.57 349.93 238.08 330.58 271.6 311.23 238.08 291.88 204.57 330.58 204.57 369.28 204.57"/><polygon class="cls-1" points="311.23 104.01 330.58 137.53 291.88 137.53 253.18 137.53 272.53 104.01 291.88 70.49 311.23 104.01"/><polygon class="cls-1" points="330.58 137.53 311.23 171.05 291.88 204.57 272.53 171.05 253.18 137.53 291.88 137.53 330.58 137.53"/><polygon class="cls-1" points="303.56 238.8 322.5 271.6 284.62 271.6 246.75 271.6 265.69 238.8 284.62 206 303.56 238.8"/><polygon class="cls-1" points="266.35 33.95 285.95 67.9 266.35 101.85 246.75 135.8 227.15 101.85 207.55 67.9 227.15 33.95 246.75 0 266.35 33.95"/><polygon class="cls-1" points="265.69 173.2 284.62 206 246.75 206 208.88 206 227.81 173.2 246.75 140.4 265.69 173.2"/><polygon class="cls-1" points="284.62 206 265.69 238.8 246.75 271.6 227.81 238.8 208.88 206 246.75 206 284.62 206"/><polygon class="cls-1" points="227.81 238.8 246.75 271.6 208.88 271.6 171.01 271.6 189.94 238.8 208.88 206 227.81 238.8"/><polygon class="cls-1" points="221.05 104.01 240.4 137.53 201.7 137.53 162.99 137.53 182.34 104.01 201.7 70.49 221.05 104.01"/><polygon class="cls-1" points="240.4 137.53 221.05 171.05 201.7 204.57 182.34 171.05 162.99 137.53 201.7 137.53 240.4 137.53"/><polygon class="cls-1" points="182.34 171.05 201.7 204.57 162.99 204.57 124.29 204.57 143.64 171.05 162.99 137.53 182.34 171.05"/><polygon class="cls-1" points="201.7 204.57 182.34 238.08 162.99 271.6 143.64 238.08 124.29 204.57 162.99 204.57 201.7 204.57"/><polygon class="cls-1" points="176.41 33.95 196.01 67.9 156.81 67.9 117.6 67.9 137.21 33.95 156.81 0 176.41 33.95"/><polygon class="cls-1" points="196.01 67.9 176.41 101.85 156.81 135.8 137.21 101.85 117.6 67.9 156.81 67.9 196.01 67.9"/><polygon class="cls-1" points="143.64 238.08 162.99 271.6 124.29 271.6 85.59 271.6 104.94 238.08 124.29 204.57 143.64 238.08"/><polygon class="cls-1" points="137.21 101.85 156.81 135.8 117.6 135.8 78.4 135.8 98 101.85 117.6 67.9 137.21 101.85"/><polygon class="cls-1" points="156.81 135.8 137.21 169.75 117.6 203.7 98 169.75 78.4 135.8 117.6 135.8 156.81 135.8"/><polygon class="cls-1" points="98 169.75 117.6 203.7 78.4 203.7 39.2 203.7 58.8 169.75 78.4 135.8 98 169.75"/><polygon class="cls-1" points="117.6 203.7 98 237.65 78.4 271.6 58.8 237.65 39.2 203.7 78.4 203.7 117.6 203.7"/><polygon class="cls-1" points="58.8 237.65 78.4 271.6 39.2 271.6 0 271.6 19.6 237.65 39.2 203.7 58.8 237.65"/></svg>